<?xml version="1.0" encoding="UTF-8" standalone="no"?>
<svg
   xmlns:dc="http://purl.org/dc/elements/1.1/"
   xmlns:cc="http://creativecommons.org/ns#"
   xmlns:rdf="http://www.w3.org/1999/02/22-rdf-syntax-ns#"
   xmlns:svg="http://www.w3.org/2000/svg"
   xmlns="http://www.w3.org/2000/svg"
   xmlns:xlink="http://www.w3.org/1999/xlink"
   xmlns:sodipodi="http://sodipodi.sourceforge.net/DTD/sodipodi-0.dtd"
   xmlns:inkscape="http://www.inkscape.org/namespaces/inkscape"
   viewBox="0 0 48 48"
   version="1.1"
   id="svg71"
   sodipodi:docname="icon_synth.svg"
   inkscape:version="1.0.1 (3bc2e813f5, 2020-09-07)">
  <metadata
     id="metadata75">
    <rdf:RDF>
      <cc:Work
         rdf:about="">
        <dc:format>image/svg+xml</dc:format>
        <dc:type
           rdf:resource="http://purl.org/dc/dcmitype/StillImage" />
      </cc:Work>
    </rdf:RDF>
  </metadata>
  <sodipodi:namedview
     pagecolor="#ffffff"
     bordercolor="#666666"
     borderopacity="1"
     objecttolerance="10"
     gridtolerance="10"
     guidetolerance="10"
     inkscape:pageopacity="0"
     inkscape:pageshadow="2"
     inkscape:window-width="1920"
     inkscape:window-height="1017"
     id="namedview73"
     showgrid="false"
     inkscape:zoom="8.8541667"
     inkscape:cx="54.922792"
     inkscape:cy="29.515798"
     inkscape:window-x="1912"
     inkscape:window-y="-8"
     inkscape:window-maximized="1"
     inkscape:current-layer="svg71" />
  <defs
     id="defs67">
    <path
       fill="#000000"
       id="i-2162"
       d="M9,16H7v-2h2V16z M45,11H31v2h14V11z M9,17H7v2h2V17z M45,14H31v2h14V14z M5,11H3v2h2V11z M13,17h-2v2h2V17z M48,6v35 h-1.998v1H2v-1H0V6H48z M8,33H7v-9H4v16h4V33z M14,33h-1v-9h-2v9h-1v7h4V33z M20,24h-3v9h-1v7h4V24z M26,33h-1v-9h-2.999v16H26V33z M32,33h-1v-9h-2v9h-1v7h4V33z M38,33h-1v-9h-2v9h-1v7h4V33z M44.002,24H41v9h-1v7h4.002V24z M46,8H2v14h44V8z M5,17H3v2h2V17z M5,14H3v2h2V14z M17,17h-2v2h2V17z M13,11h-2v2h2V11z M13,14h-2v2h2V14z M17,14h-2v2h2V14z M9,11H7v2h2V11z M45,17H31v2h14V17z M17,11h-2v2h2V11z M29,19H19v-8h10V19z M27,13h-6v4h6V13z" />
  </defs>
  <use
     x="0"
     y="0"
     xlink:href="#i-2162"
     id="use69"
     transform="matrix(0.90849206,0,0,0.92013853,2.1756375,2.8411022)"
     width="100%"
     height="100%" />
</svg>
